<?xml version="1.0" encoding="utf-8"?>
<!-- Generator: Adobe Illustrator 15.0.0, SVG Export Plug-In . SVG Version: 6.00 Build 0)  -->
<!DOCTYPE svg PUBLIC "-//W3C//DTD SVG 1.1//EN" "http://www.w3.org/Graphics/SVG/1.1/DTD/svg11.dtd">
<svg version="1.1" id="Ebene_1" xmlns="http://www.w3.org/2000/svg" x="0px"
     y="0px"
     width="213px" height="45px" viewBox="260 20 1 104" enable-background="new 0 0 538 142" xml:space="preserve">
<path fill="#009FE3" fill-rule="evenodd" clip-rule="evenodd" d="M70.54,21.954c-26.833,0-48.586,21.753-48.586,48.586
	c0,26.833,21.753,48.585,48.586,48.585c26.833,0,48.586-21.753,48.586-48.585C119.126,43.707,97.372,21.954,70.54,21.954z
	 M44.992,101.096l-1.158,2.514C34.169,95.815,27.98,83.883,27.98,70.5c0-23.483,19.036-42.52,42.52-42.52
	c7.527,0,14.592,1.964,20.725,5.395L70.235,41.33c-0.267-1.429-0.514-2.985-0.514-2.985s-0.04-0.862,1.163-1.389l-1.859-2.66
	l-2.136,2.199l-9.789,4.249l4.715,9.232l0.985,0.086l-2.131,8.265l0.843,16.503l-5.347,13.948l-7.719,11.148l-1.762,4.364
	l0.405-3.606L44.992,101.096z M70.5,113.02c-8.409,0-16.24-2.451-22.838-6.662L63.495,91.48l5.754-7.844l-5.555-0.21l10.762-1.811
	L72.36,93.252l0.597,5.396l-1.125-4.028l-1.865,1.216l0.592,10.273l1.571,0.646l11.022-29.211l-0.407-3.36l-10.513-0.878
	l1.954-10.896l-6.003,1.883l13.647-7.696l4.137-16.014l-7.088,1.542l-0.391,0.943l3.412,0.875L76.49,54.109l-6.524,1.193
	l-2.351-1.654L67.5,50.512l4.377,0.427l-0.529-3.152l-1.322-0.068l1.324-0.643l-0.235-0.685l1.136-1.186
	c0,0-1.192-0.949-1.497-1.619c-0.063-0.136-0.142-0.434-0.229-0.82l25.968-5.904C106.542,44.639,113.02,56.81,113.02,70.5
	C113.02,93.982,93.982,113.02,70.5,113.02z"/>
    <rect fill="#009FE3" x="142" y="53.831" width="6.063" height="51.099"/>
    <path fill="#009FE3" d="M162,104.93V53.831h6.064v3.64c0,0,8.691-4.548,16.372-4.548c13.847,0,16.878,6.366,16.878,25.164v26.844
	h-5.961V78.188c0-14.755-1.619-19.708-11.625-19.708c-7.58,0-15.664,4.244-15.664,4.244v42.206H162z"/>
    <path fill="#009FE3" d="M222.313,59.39v24.559c0,12.632,0.81,15.866,7.984,15.866c2.831,0,9.399-0.708,9.399-0.708l0.304,5.356
	c0,0-6.671,1.011-10.208,1.011c-9.904,0-13.542-3.739-13.542-18.292V59.39h-7.479v-5.56h7.479V37.965h6.063v15.866h16.879v5.56
	H222.313z"/>
    <path fill="#009FE3" d="M283.413,98.906l0.202,5.053c0,0-11.421,1.415-19.304,1.415c-15.059-0.101-19.605-9.196-19.605-26.074
	c0-19.506,8.489-26.377,20.818-26.377c13.037,0,19.909,6.871,19.909,23.851l-0.202,4.851H250.87
	c0,11.925,3.436,18.191,14.049,18.191C272.296,99.815,283.413,98.906,283.413,98.906z M279.371,76.57
	c0-13.341-4.347-18.293-13.847-18.293c-9.197,0-14.654,5.155-14.654,18.293H279.371z"/>
    <path fill="#009FE3" d="M295,53.831h6.063v7.175c0,0,8.187-6.266,18.495-8.186v6.166c-9.601,1.919-18.495,7.68-18.495,7.68v38.264
	H295V53.831z"/>
    <path fill="#009FE3" d="M356.958,54.134l-0.202,5.355c0,0-8.085-0.908-11.926-0.908c-12.129,0-15.665,5.153-15.665,19.606
	c0,15.665,2.526,21.527,15.665,21.527c3.841,0,12.027-0.91,12.027-0.91l0.303,5.357c0,0-9.096,1.212-13.441,1.212
	c-16.372,0-20.719-7.277-20.719-27.187c0-18.495,5.762-25.265,20.82-25.265C348.165,52.922,356.958,54.134,356.958,54.134z"/>
    <path fill="#009FE3" d="M405,78.391c0,18.089-4.143,26.983-21.02,26.983c-16.979,0-21.326-7.983-21.326-27.085
	c0-17.889,5.66-25.367,21.326-25.367C398.634,52.922,405,60.703,405,78.391z M398.734,78.391c0-14.454-4.446-20.012-14.754-20.012
	c-11.624,0-15.16,4.851-15.16,19.911c0,15.361,2.122,21.628,15.16,21.628C397.017,99.917,398.734,92.843,398.734,78.391z"/>
    <path fill="#009FE3" d="M414.1,53.831h6.064v7.175c0,0,8.186-6.266,18.495-8.186v6.166c-9.602,1.919-18.495,7.68-18.495,7.68v38.264
	H414.1V53.831z"/>
    <path fill="#009FE3" d="M446,53.831h6.064v3.841c0,0,7.884-4.749,15.968-4.749c12.632,0,17.989,7.781,17.989,25.568
	c0,19.405-6.266,26.884-21.829,26.884c-5.054,0-10.411-0.91-12.128-1.314V122H446V53.831z M452.064,62.927v35.777
	c1.717,0.303,7.074,1.213,11.825,1.213c11.822,0,15.866-5.964,15.866-21.628c0-14.656-4.549-19.911-12.329-19.911
	C460.048,58.378,452.064,62.927,452.064,62.927z"/>
    <rect x="142" y="37" fill="#009FE3" width="6.063" height="8.502"/>
    <rect x="493" y="96.411" fill="#009FE3" width="6.064" height="8.502"/>
</svg>
